<svg xmlns="http://www.w3.org/2000/svg" width="16" height="16" fill="none" viewBox="0 0 16 16"><path fill="currentColor" fill-rule="evenodd" d="M13.185 2.953a1 1 0 0 1 1.374 1.084l-1.512 9.172c-.146.884-1.117 1.392-1.928.951a38.987 38.987 0 0 1-2.594-1.53c-.453-.296-1.842-1.246-1.671-1.922.147-.578 2.48-2.75 3.813-4.041.524-.508.285-.8-.333-.334C8.799 7.492 6.335 9.254 5.52 9.75c-.72.437-1.094.512-1.542.437a10.215 10.215 0 0 1-2.194-.603c-.836-.347-.795-1.496 0-1.83l11.4-4.8Z" clip-rule="evenodd"/></svg>
